<svg width="129" height="66" viewBox="0 0 129 66" fill="none" xmlns="http://www.w3.org/2000/svg">
<g clip-path="url(#clip0_2_3)">
<path d="M124.627 41.709L123.612 42.724C119.031 47.305 111.604 47.305 107.022 42.724L86.259 21.96C81.677 17.379 81.677 9.952 86.259 5.37L87.274 4.356C91.854 -0.225 99.282 -0.225 103.864 4.356L124.627 25.119C129.208 29.7 129.208 37.128 124.627 41.709Z" fill="#1470FA"/>
<path d="M104.371 61.927L124.119 42.179C128.98 37.317 128.98 29.436 124.119 24.575C123.935 24.391 123.745 24.216 123.553 24.046L107.082 7.575C111.234 12.27 111.234 19.346 107.085 24.043C106.891 24.214 106.701 24.39 106.515 24.575L86.767 44.323C81.905 49.184 81.905 57.066 86.767 61.927C91.628 66.789 99.51 66.789 104.371 61.927Z" fill="#4396F7"/>
<path d="M3.44296 25.082L4.45697 24.068C9.03797 19.487 16.466 19.487 21.047 24.068L41.81 44.831C46.391 49.412 46.391 56.84 41.81 61.421L40.795 62.436C36.214 67.017 28.786 67.017 24.205 62.436L3.44195 41.673C-1.13805 37.091 -1.13804 29.663 3.44296 25.082Z" fill="#1470FA"/>
<path d="M23.6991 4.863L3.95105 24.611C-0.909953 29.473 -0.909953 37.354 3.95105 42.215C4.13505 42.399 4.32506 42.574 4.51706 42.744L20.9881 59.215C16.8361 54.52 16.8361 47.444 20.9851 42.748C21.1791 42.577 21.3691 42.401 21.5541 42.216L41.3031 22.468C46.1651 17.606 46.1651 9.725 41.3031 4.864C36.4421 0.002002 28.5611 0.00200248 23.6991 4.863Z" fill="#4396F7"/>
<path d="M54.45 34.199C54.45 37.428 51.832 40.046 48.603 40.046C45.374 40.046 42.756 37.428 42.756 34.199C42.756 30.97 45.374 28.352 48.603 28.352C51.832 28.353 54.45 30.97 54.45 34.199Z" fill="#1470FA"/>
<path d="M53.302 33.395C53.302 36.624 50.684 39.242 47.455 39.242C44.226 39.242 41.608 36.624 41.608 33.395C41.608 30.166 44.226 27.548 47.455 27.548C50.684 27.549 53.302 30.166 53.302 33.395Z" fill="#4396F7"/>
<path d="M71.0299 34.199C71.0299 37.428 68.4119 40.046 65.1829 40.046C61.9539 40.046 59.3359 37.428 59.3359 34.199C59.3359 30.97 61.9529 28.352 65.1829 28.352C68.4119 28.353 71.0299 30.97 71.0299 34.199Z" fill="#1470FA"/>
<path d="M69.882 33.395C69.882 36.624 67.264 39.242 64.035 39.242C60.806 39.242 58.188 36.624 58.188 33.395C58.188 30.166 60.806 27.548 64.035 27.548C67.264 27.549 69.882 30.166 69.882 33.395Z" fill="#4396F7"/>
<path d="M87.61 34.199C87.61 37.428 84.992 40.046 81.763 40.046C78.534 40.046 75.916 37.428 75.916 34.199C75.916 30.97 78.534 28.352 81.763 28.352C84.992 28.353 87.61 30.97 87.61 34.199Z" fill="#1470FA"/>
<path d="M86.4619 33.395C86.4619 36.624 83.8439 39.242 80.6149 39.242C77.3859 39.242 74.7679 36.624 74.7679 33.395C74.7679 30.166 77.3859 27.548 80.6149 27.548C83.8439 27.549 86.4619 30.166 86.4619 33.395Z" fill="#4396F7"/>
</g>
<defs>
<clipPath id="clip0_2_3">
<rect width="129" height="66" fill="white"/>
</clipPath>
</defs>
</svg>
