<svg width="37" height="32" viewBox="0 0 37 32" fill="none" xmlns="http://www.w3.org/2000/svg">
<path d="M18.1818 0C8.17112 0 0 6.63102 0 14.7594C0 19.2941 2.60963 23.615 6.97326 26.3957L5.43316 29.6043C5.13369 30.2032 5.26203 30.9305 5.68984 31.4438C6.03209 31.7861 6.45989 32 6.93048 32C7.1016 32 7.31551 31.9572 7.48663 31.9144L14.8877 29.262C15.9572 29.4332 17.0695 29.5187 18.1818 29.5187C28.1925 29.5187 36.3636 22.8877 36.3636 14.7594C36.3636 6.63102 28.1925 0 18.1818 0Z" fill="url(#paint0_linear_10_97)"/>
<path d="M17.754 9.66846C15.6577 9.66846 13.9893 11.3797 13.9893 13.4332C13.9893 15.4866 15.7005 17.1979 17.754 17.1979C19.8074 17.1979 21.5187 15.4866 21.5187 13.4332C21.5187 11.3797 19.8502 9.66846 17.754 9.66846ZM17.754 14.631C17.0695 14.631 16.5561 14.0749 16.5561 13.4332C16.5561 12.7915 17.1123 12.2353 17.754 12.2353C18.3957 12.2353 18.9518 12.7915 18.9518 13.4332C18.9518 14.0749 18.4385 14.631 17.754 14.631Z" fill="white"/>
<path d="M25.968 9.66846C23.8717 9.66846 22.2032 11.3797 22.2032 13.4332C22.2032 15.4866 23.9145 17.1979 25.968 17.1979C28.0642 17.1979 29.7327 15.4866 29.7327 13.4332C29.7327 11.3797 28.0214 9.66846 25.968 9.66846ZM25.968 14.631C25.2835 14.631 24.7701 14.0749 24.7701 13.4332C24.7701 12.7915 25.3262 12.2353 25.968 12.2353C26.6097 12.2353 27.1658 12.7487 27.1658 13.4332C27.1658 14.1177 26.6097 14.631 25.968 14.631Z" fill="white"/>
<defs>
<linearGradient id="paint0_linear_10_97" x1="18.1818" y1="0" x2="18.1818" y2="32" gradientUnits="userSpaceOnUse">
<stop stop-color="#00B3FF"/>
<stop offset="1" stop-color="#0097DF"/>
</linearGradient>
</defs>
</svg>
